<svg width="40" height="34" viewBox="0 0 40 34" fill="none" xmlns="http://www.w3.org/2000/svg">
<path d="M34.5421 21.6688H8.21566C7.89266 21.6688 7.63086 21.4067 7.63086 21.084C7.63086 20.761 7.89266 20.4989 8.21566 20.4989H34.5421C34.8649 20.4989 35.1269 20.761 35.1269 21.084C35.1272 21.4067 34.8651 21.6688 34.5421 21.6688Z" fill="#FF6740"/>
<path d="M34.5421 23.8866H8.21566C7.89266 23.8866 7.63086 23.6251 7.63086 23.3018C7.63086 22.9791 7.89266 22.717 8.21566 22.717H34.5421C34.8649 22.717 35.1269 22.9791 35.1269 23.3018C35.1272 23.6251 34.8651 23.8866 34.5421 23.8866Z" fill="#FF6740"/>
<path d="M30.2334 23.2285V27.1414L31.9083 26.1708L33.5842 27.1419V23.2285H30.2334Z" fill="#FF6740"/>
<path d="M35.7147 10.8662H31.312V13.3071H35.7147V10.8662Z" fill="#272B30"/>
<path d="M38.0808 13.9275C38.0588 13.9086 38.0369 13.8908 38.0149 13.872C37.5122 13.435 37.0825 12.9161 36.749 12.3357C36.7459 12.33 36.7433 12.324 36.7404 12.3182H36.7388C36.3706 11.6678 36.1203 10.9412 36.0196 10.1681C36.0146 10.1213 36.0094 10.0745 36.0044 10.0277C36.0044 10.0248 36.0034 10.0219 36.0034 10.019C35.961 9.74703 35.8444 9.49857 35.677 9.29405C35.6608 9.27626 35.6448 9.25743 35.6291 9.23991C34.2477 7.68898 32.4101 6.55182 30.3275 6.04155C30.3228 5.94217 30.3204 5.84148 30.3204 5.74052C30.3204 4.58583 30.6173 3.50123 31.1377 2.55708C31.1665 2.50425 31.1827 2.44305 31.1827 2.37714C31.1827 2.16817 31.0145 2 30.8061 2C30.7972 2 30.7886 2 30.7797 2.00157C30.7577 2.00288 30.7357 2.00732 30.7153 2.01177C28.0885 2.4488 25.7132 3.62991 23.8147 5.33122C23.0143 6.04757 22.2985 6.85598 21.6844 7.74025C21.426 8.11137 21.1862 8.49452 20.9655 8.89049C20.8336 8.81883 20.6989 8.75031 20.5632 8.6844C20.1364 8.47412 19.6965 8.28843 19.2435 8.12602C17.8853 7.63929 16.4223 7.37462 14.8962 7.37462C14.4958 7.37462 14.0982 7.39371 13.7065 7.43032C12.233 7.56345 10.8298 7.94634 9.54198 8.53532C5.37934 10.437 2.40486 14.489 2.03949 19.2699C2.01308 19.6005 2 19.935 2 20.2713V23.5045C2 24.0634 2.08317 24.6022 2.23669 25.1095C2.65489 26.4907 3.59748 27.6428 4.83272 28.3354C5.59275 28.7624 6.46394 29.0154 7.39214 29.0386H15.6055C15.6463 29.0355 15.6874 29.0339 15.7282 29.0339C15.7676 29.0339 15.8087 29.0355 15.8482 29.0386C15.8613 29.0397 15.8744 29.0397 15.8874 29.0418C15.9094 29.0433 15.9301 29.0444 15.952 29.0473C16.4576 29.1061 16.9035 29.3574 17.2147 29.7273C17.2629 29.784 17.3097 29.8452 17.3523 29.9096C17.5071 30.1449 17.6123 30.4159 17.6518 30.7059C17.6546 30.7198 17.6562 30.7339 17.6578 30.7488C17.6664 30.8087 17.6709 30.8699 17.6709 30.9327C17.6722 30.9476 17.6722 30.9633 17.6722 30.9782C17.6722 30.9915 17.6722 31.0033 17.6709 31.0151V31.0193C17.675 31.2604 17.7234 31.4898 17.8097 31.7021C17.9646 32.0879 18.2394 32.4122 18.5889 32.6298C18.8854 32.8142 19.2349 32.9193 19.6089 32.9193C20.5548 32.9193 21.3442 32.2409 21.5136 31.3425C21.5299 31.269 21.5385 31.1934 21.5442 31.1158C21.5458 31.0896 21.5476 31.0648 21.5476 31.0381C21.5487 31.0177 21.5487 30.9989 21.5487 30.9782V30.9301C21.5487 30.2676 21.4375 29.6302 21.2346 29.0386C20.9393 28.179 20.4484 27.41 19.8136 26.785C19.1368 26.1178 18.2978 25.6151 17.3609 25.3418C16.8436 25.1911 16.2939 25.109 15.7268 25.109H8.88029C8.86408 25.1108 8.84655 25.1108 8.8306 25.1108C8.81438 25.1108 8.79686 25.1108 8.78091 25.109C7.2564 25.085 6.01671 23.8918 5.91732 22.388C5.91288 22.3221 5.91 22.2562 5.91 22.1908C5.91 20.5771 7.21664 19.2699 8.8306 19.2699H34.9363C35.61 19.2699 36.1818 18.8284 36.3792 18.2206C36.3847 18.1971 36.3926 18.172 36.3996 18.1492C36.4901 17.8555 36.6698 17.5995 36.9054 17.4125C36.907 17.4109 36.907 17.4109 36.9086 17.4109C36.9274 17.3949 36.9478 17.3803 36.9674 17.3672C36.9936 17.3468 37.0216 17.329 37.0493 17.3118C37.6953 16.8292 38.1378 16.0896 38.2304 15.2464C38.2437 15.1381 38.2492 15.027 38.2492 14.9158C38.2487 14.5695 38.1899 14.2374 38.0808 13.9275ZM34.5929 12.7626C34.5301 12.7626 34.47 12.7464 34.4177 12.7189C34.1616 12.5711 33.8708 12.4775 33.5611 12.4526C33.5054 12.4482 33.4497 12.4453 33.393 12.4453C33.2567 12.4453 33.1239 12.4584 32.9952 12.4848C32.7828 12.5243 32.583 12.5988 32.4002 12.6998C32.397 12.7011 32.3947 12.704 32.3918 12.7056C32.38 12.71 32.3698 12.7173 32.3596 12.7244C32.3102 12.7495 32.2545 12.7626 32.1957 12.7626C31.993 12.7626 31.8274 12.5975 31.8274 12.3943C31.8274 12.267 31.8917 12.1561 31.9898 12.0902C32.0016 12.0815 32.0134 12.0755 32.0264 12.0682C32.2631 11.9353 32.5223 11.8359 32.7954 11.776C32.9879 11.7334 33.1882 11.7114 33.393 11.7114C33.8329 11.7114 34.2493 11.8124 34.6191 11.9952C34.6675 12.0172 34.7137 12.042 34.7608 12.0682C34.7742 12.0755 34.7857 12.0828 34.7974 12.0902C34.8955 12.1561 34.9596 12.2685 34.9596 12.3943C34.9596 12.5975 34.7946 12.7626 34.5929 12.7626Z" fill="#F1F1F1"/>
<path d="M38.0808 13.9275C38.0588 13.9086 38.0369 13.8908 38.0149 13.872C37.5122 13.435 37.0825 12.9161 36.749 12.3357C36.7459 12.33 36.7433 12.324 36.7404 12.3182H36.7388C36.3706 11.6678 36.1203 10.9412 36.0196 10.1681C36.0146 10.1213 36.0094 10.0745 36.0044 10.0277C36.0044 10.0248 36.0034 10.0219 36.0034 10.019C35.961 9.74703 35.8444 9.49857 35.677 9.29405C35.6608 9.27626 35.6448 9.25743 35.6291 9.23991C34.2477 7.68898 32.4101 6.55182 30.3275 6.04155C30.3228 5.94217 30.3204 5.84148 30.3204 5.74052C30.3204 4.58583 30.6173 3.50123 31.1377 2.55708C31.1665 2.50425 31.1827 2.44305 31.1827 2.37714C31.1827 2.16817 31.0145 2 30.8061 2C30.7972 2 30.7886 2 30.7797 2.00157C30.7577 2.00288 30.7357 2.00732 30.7153 2.01177C28.0885 2.4488 25.7132 3.62991 23.8147 5.33122C23.0143 6.04757 22.2985 6.85598 21.6844 7.74025C21.426 8.11137 21.1862 8.49452 20.9655 8.89049C20.8336 8.81883 20.6989 8.75031 20.5632 8.6844C20.1364 8.47412 19.6965 8.28843 19.2435 8.12602C17.8853 7.63929 16.4223 7.37462 14.8962 7.37462C14.4958 7.37462 14.0982 7.39371 13.7065 7.43032C12.233 7.56345 10.8298 7.94634 9.54198 8.53532C5.37934 10.437 2.40486 14.489 2.03949 19.2699C2.01308 19.6005 2 19.935 2 20.2713V23.5045C2 24.0634 2.08317 24.6022 2.23669 25.1095C2.65489 26.4907 3.59748 27.6428 4.83272 28.3354C5.59275 28.7624 6.46394 29.0154 7.39214 29.0386H15.6055C15.6463 29.0355 15.6874 29.0339 15.7282 29.0339C15.7676 29.0339 15.8087 29.0355 15.8482 29.0386C15.8613 29.0397 15.8744 29.0397 15.8874 29.0418C15.9094 29.0433 15.9301 29.0444 15.952 29.0473C16.4576 29.1061 16.9035 29.3574 17.2147 29.7273C17.2629 29.784 17.3097 29.8452 17.3523 29.9096C17.5071 30.1449 17.6123 30.4159 17.6518 30.7059C17.6546 30.7198 17.6562 30.7339 17.6578 30.7488C17.6664 30.8087 17.6709 30.8699 17.6709 30.9327C17.6722 30.9476 17.6722 30.9633 17.6722 30.9782C17.6722 30.9915 17.6722 31.0033 17.6709 31.0151V31.0193C17.675 31.2604 17.7234 31.4898 17.8097 31.7021C17.9646 32.0879 18.2394 32.4122 18.5889 32.6298C18.8854 32.8142 19.2349 32.9193 19.6089 32.9193C20.5548 32.9193 21.3442 32.2409 21.5136 31.3425C21.5299 31.269 21.5385 31.1934 21.5442 31.1158C21.5458 31.0896 21.5476 31.0648 21.5476 31.0381C21.5487 31.0177 21.5487 30.9989 21.5487 30.9782V30.9301C21.5487 30.2676 21.4375 29.6302 21.2346 29.0386C20.9393 28.179 20.4484 27.41 19.8136 26.785C19.1368 26.1178 18.2978 25.6151 17.3609 25.3418C16.8436 25.1911 16.2939 25.109 15.7268 25.109H8.88029C8.86408 25.1108 8.84655 25.1108 8.8306 25.1108C8.81438 25.1108 8.79686 25.1108 8.78091 25.109C7.2564 25.085 6.01671 23.8918 5.91732 22.388C5.91288 22.3221 5.91 22.2562 5.91 22.1908C5.91 20.5771 7.21664 19.2699 8.8306 19.2699H34.9363C35.61 19.2699 36.1818 18.8284 36.3792 18.2206C36.3847 18.1971 36.3926 18.172 36.3996 18.1492C36.4901 17.8555 36.6698 17.5995 36.9054 17.4125C36.907 17.4109 36.907 17.4109 36.9086 17.4109C36.9274 17.3949 36.9478 17.3803 36.9674 17.3672C36.9936 17.3468 37.0216 17.329 37.0493 17.3118C37.6953 16.8292 38.1378 16.0896 38.2304 15.2464C38.2437 15.1381 38.2492 15.027 38.2492 14.9158C38.2487 14.5695 38.1899 14.2374 38.0808 13.9275ZM34.5929 12.7626C34.5301 12.7626 34.47 12.7464 34.4177 12.7189C34.1616 12.5711 33.8708 12.4775 33.5611 12.4526C33.5054 12.4482 33.4497 12.4453 33.393 12.4453C33.2567 12.4453 33.1239 12.4584 32.9952 12.4848C32.7828 12.5243 32.583 12.5988 32.4002 12.6998C32.397 12.7011 32.3947 12.704 32.3918 12.7056C32.38 12.71 32.3698 12.7173 32.3596 12.7244C32.3102 12.7495 32.2545 12.7626 32.1957 12.7626C31.993 12.7626 31.8274 12.5975 31.8274 12.3943C31.8274 12.267 31.8917 12.1561 31.9898 12.0902C32.0016 12.0815 32.0134 12.0755 32.0264 12.0682C32.2631 11.9353 32.5223 11.8359 32.7954 11.776C32.9879 11.7334 33.1882 11.7114 33.393 11.7114C33.8329 11.7114 34.2493 11.8124 34.6191 11.9952C34.6675 12.0172 34.7137 12.042 34.7608 12.0682C34.7742 12.0755 34.7857 12.0828 34.7974 12.0902C34.8955 12.1561 34.9596 12.2685 34.9596 12.3943C34.9596 12.5975 34.7946 12.7626 34.5929 12.7626Z" fill="#E6E6E6"/>
<path d="M21.0049 8.82378C21.7079 12.2031 24.6397 14.7385 28.1522 14.7385C30.2191 14.7385 32.085 13.8584 33.4141 12.4466C33.407 12.4464 33.3997 12.4456 33.3926 12.4456C33.2564 12.4456 33.1235 12.4586 32.9948 12.4851C32.7825 12.5243 32.5827 12.5991 32.3998 12.6998C32.397 12.7014 32.3944 12.7042 32.3915 12.7058C32.3797 12.71 32.3695 12.7173 32.3593 12.7246C32.3099 12.7495 32.2542 12.7628 32.1953 12.7628C31.9926 12.7628 31.8271 12.5975 31.8271 12.3943C31.8271 12.2672 31.8914 12.156 31.9895 12.0904C32.0013 12.0815 32.013 12.0758 32.0261 12.0684C32.2628 11.9353 32.522 11.8359 32.795 11.776C32.9875 11.7337 33.1879 11.7117 33.3926 11.7117C33.5938 11.7117 33.7891 11.7337 33.9777 11.7739C34.6033 10.9302 35.0566 9.9463 35.287 8.87635C33.9505 7.5119 32.2432 6.511 30.3272 6.0418C30.3224 5.94241 30.3201 5.84146 30.3201 5.74077C30.3201 4.58581 30.6169 3.50121 31.1374 2.55706C31.1662 2.50449 31.1824 2.44329 31.1824 2.37738C31.1824 2.16841 31.0142 2.00024 30.8058 2.00024C30.7969 2.00024 30.7882 2.00024 30.7794 2.00181C30.7574 2.00312 30.7354 2.00757 30.715 2.01201C28.0879 2.44878 25.7131 3.63015 23.8146 5.33146C23.0145 6.04755 22.2985 6.85597 21.6844 7.74023C21.4406 8.09017 21.2152 8.45161 21.0049 8.82378Z" fill="#FF6740"/>
<path d="M36.1447 15.8066C35.8272 15.7124 35.5115 15.6183 35.19 15.5474C34.8715 15.4658 34.5503 15.3967 34.2278 15.3366C33.5826 15.2192 32.934 15.1297 32.2825 15.0884C31.6308 15.0337 30.9774 15.0607 30.3267 15.1109L29.8395 15.1655C29.6773 15.1883 29.5183 15.2267 29.357 15.2555C29.0285 15.2953 28.7214 15.4145 28.395 15.4831C28.9984 15.2126 29.6397 15.0063 30.3014 14.9113C30.9607 14.8122 31.6334 14.7779 32.299 14.8276C32.9646 14.8763 33.6258 14.9749 34.2707 15.1412C34.9149 15.3063 35.5491 15.5139 36.1447 15.8066Z" fill="#272B30"/>
<path d="M35.8575 16.4066C35.5295 16.3605 35.2036 16.3145 34.8746 16.2923C34.5471 16.2588 34.2194 16.2381 33.8915 16.2266C33.2361 16.2065 32.5814 16.2141 31.931 16.2703C31.2784 16.3129 30.6364 16.4366 30.0006 16.5828L29.5264 16.7094C29.3697 16.7557 29.218 16.8174 29.0629 16.8698C28.7444 16.9579 28.4583 17.1214 28.146 17.2377C28.7023 16.8807 29.3059 16.5815 29.9462 16.3893C30.5838 16.1932 31.2434 16.0595 31.9093 16.0098C32.5744 15.9591 33.2439 15.9583 33.9059 16.0268C34.5662 16.0948 35.2251 16.2057 35.8575 16.4066Z" fill="#272B30"/>
<path d="M35.8129 17.1057C35.4824 17.1319 35.1544 17.157 34.8283 17.2062C34.5019 17.2443 34.1773 17.2948 33.8543 17.3544C33.2101 17.4763 32.5727 17.6251 31.9498 17.8202C31.3218 18.0028 30.7216 18.262 30.1323 18.5426L29.6969 18.7683C29.5538 18.8476 29.4188 18.9402 29.2787 19.0246C28.9865 19.1797 28.7425 19.401 28.4624 19.582C28.9285 19.1136 29.4534 18.6909 30.0371 18.3653C30.6175 18.036 31.2324 17.763 31.8721 17.571C32.5105 17.3775 33.1636 17.2326 33.825 17.1565C34.4851 17.0796 35.1518 17.0461 35.8129 17.1057Z" fill="#272B30"/>
<path d="M38.0151 13.872C37.9047 13.7763 37.7985 13.6756 37.6952 13.572C37.4154 13.7418 37.2271 14.0485 37.2271 14.4003C37.2271 14.9349 37.6604 15.3685 38.195 15.3685C38.2005 15.3685 38.2049 15.368 38.2102 15.3677C38.2159 15.3269 38.2256 15.2875 38.2298 15.2461C38.2429 15.1379 38.2486 15.027 38.2486 14.9158C38.2486 14.5693 38.19 14.2374 38.0802 13.9275C38.059 13.9086 38.037 13.8911 38.0151 13.872Z" fill="#F27BAA"/>
<path d="M29.9931 6.54026C29.9931 6.58551 29.9931 6.63232 29.9947 6.67757C28.8167 7.15566 27.7449 7.84403 26.8288 8.69481C26.7908 8.43458 26.7715 8.16991 26.7715 7.89947C26.7715 5.2276 28.6587 2.99563 31.1742 2.46497C30.427 3.6432 29.9931 5.0406 29.9931 6.54026Z" fill="white"/>
<path d="M19.8138 26.7845C19.6856 26.6584 19.5496 26.5397 19.4102 26.4259C17.943 26.7248 16.735 27.7373 16.1646 29.0852C16.582 29.1812 16.9481 29.4101 17.2149 29.7268C17.263 29.7841 17.3098 29.8453 17.3522 29.9096C17.5073 30.145 17.6124 30.4154 17.6519 30.7065C17.6548 30.7193 17.6564 30.734 17.6577 30.7489C17.6666 30.8088 17.671 30.87 17.671 30.9327C17.6723 30.9476 17.6723 30.9639 17.6723 30.9782C17.6723 30.9911 17.6723 31.0028 17.671 31.0146V31.0193C17.6752 31.2604 17.7236 31.4903 17.8096 31.7017C17.9647 32.0879 18.2393 32.4123 18.5887 32.6304C18.8856 32.8142 19.235 32.9194 19.609 32.9194C20.5547 32.9194 21.3443 32.2409 21.5138 31.342C21.53 31.2691 21.5386 31.1935 21.5444 31.1158C21.546 31.0891 21.5473 31.0648 21.5473 31.0387C21.5488 31.0177 21.5488 30.9989 21.5488 30.9785V30.9304C21.5488 30.2679 21.4377 29.6303 21.2347 29.0389C20.9392 28.179 20.448 27.4103 19.8138 26.7845Z" fill="#FF6740"/>
</svg>
